<svg id="wallet" xmlns="http://www.w3.org/2000/svg" width="64" height="64" viewBox="0 0 64 64">
  <path id="Vector" d="M20.533,1.382l-.08.187L12.72,19.515H5.12A13.106,13.106,0,0,0,0,20.555L4.667,9.408l.107-.267.187-.427a2.307,2.307,0,0,1,.187-.453C8.64.182,12.587-1.658,20.533,1.382Z" transform="translate(13.227 5.333)" fill="none" stroke="#09b79a" stroke-linecap="round" stroke-linejoin="round" stroke-width="3"/>
  <path id="Vector-2" data-name="Vector" d="M22.187,18.667a12.693,12.693,0,0,0-3.76-.533H0L7.733.187,7.813,0c.4.133.773.32,1.173.48L14.88,2.96c3.28,1.36,5.573,2.773,6.96,4.48a5.641,5.641,0,0,1,.667.96,4.058,4.058,0,0,1,.533,1.147,4.305,4.305,0,0,1,.24.693C24,12.48,23.573,15.227,22.187,18.667Z" transform="translate(25.947 6.715)" fill="none" stroke="#09b79a" stroke-linecap="round" stroke-linejoin="round" stroke-width="3"/>
  <path id="Vector-3" data-name="Vector" d="M52.027,13.013v5.2c0,.533-.027,1.067-.053,1.6-.507,9.307-5.707,14-15.573,14H15.6a14.717,14.717,0,0,1-1.893-.133Q.987,32.84.133,20.107A14.717,14.717,0,0,1,0,18.213v-5.2A13.05,13.05,0,0,1,7.893,1.04,13.206,13.206,0,0,1,13.013,0H39.04A13.346,13.346,0,0,1,42.8.533,13.076,13.076,0,0,1,52.027,13.013Z" transform="translate(5.365 24.849)" fill="none" stroke="#09b79a" stroke-linecap="round" stroke-linejoin="round" stroke-width="3"/>
  <path id="Vector-4" data-name="Vector" d="M12.56,0,7.893,11.147A13.05,13.05,0,0,0,0,23.12V15.307A15.6,15.6,0,0,1,12.56,0Z" transform="translate(5.333 14.742)" fill="none" stroke="#09b79a" stroke-linecap="round" stroke-linejoin="round" stroke-width="3"/>
  <path id="Vector-5" data-name="Vector" d="M9.227,13.787V21.6A13.01,13.01,0,0,0,0,9.147C1.387,5.68,1.787,2.96,1.12.693A3.046,3.046,0,0,0,.88,0,15.528,15.528,0,0,1,9.227,13.787Z" transform="translate(48.156 16.26)" fill="none" stroke="#09b79a" stroke-linecap="round" stroke-linejoin="round" stroke-width="3"/>
  <path id="Vector-6" data-name="Vector" d="M0,0H64V64H0Z" fill="none" opacity="0"/>
</svg>
