<svg xmlns="http://www.w3.org/2000/svg" width="64" height="64" viewBox="0 0 64 64">
  <g id="vuesax_linear_ranking" data-name="vuesax/linear/ranking" transform="translate(-492 -188)">
    <g id="ranking" transform="translate(492 188)">
      <g id="Group" transform="translate(12.005 18.767)">
        <path id="Vector" d="M23.461,2.86l3.52,7.04a4.324,4.324,0,0,0,2.827,2.08l6.373,1.067c4.08.693,5.04,3.627,2.107,6.56l-4.96,4.96a4.353,4.353,0,0,0-1.04,3.627l1.413,6.16c1.12,4.853-1.467,6.747-5.76,4.213L21.968,35.02a4.3,4.3,0,0,0-3.947,0l-5.973,3.547c-4.293,2.533-6.88.64-5.76-4.213L7.7,28.193a4.4,4.4,0,0,0-1.04-3.627L1.7,19.607c-2.933-2.933-1.973-5.893,2.107-6.56l6.373-1.067A4.412,4.412,0,0,0,13.008,9.9l3.52-7.04C18.421-.953,21.568-.953,23.461,2.86Z" transform="translate(0)" fill="none" stroke="#09b79a" stroke-linecap="round" stroke-linejoin="round" stroke-width="3"/>
      </g>
      <path id="Vector-2" data-name="Vector" d="M0,18.667V0" transform="translate(16 5.333)" fill="none" stroke="#09b79a" stroke-linecap="round" stroke-linejoin="round" stroke-width="3"/>
      <path id="Vector-3" data-name="Vector" d="M0,18.667V0" transform="translate(48 5.333)" fill="none" stroke="#09b79a" stroke-linecap="round" stroke-linejoin="round" stroke-width="3"/>
      <path id="Vector-4" data-name="Vector" d="M0,5.333V0" transform="translate(32 5.333)" fill="none" stroke="#09b79a" stroke-linecap="round" stroke-linejoin="round" stroke-width="3"/>
      <path id="Vector-5" data-name="Vector" d="M0,0H64V64H0Z" fill="none" opacity="0"/>
    </g>
  </g>
</svg>
