<svg xmlns="http://www.w3.org/2000/svg" width="32" height="32" viewBox="0 0 32 32">
  <g id="vuesax_linear_security" data-name="vuesax/linear/security" transform="translate(-428 -316)">
    <g id="security" transform="translate(428 316)">
      <path id="Vector" d="M25.816,12.759c0,6.847-5.143,13.26-12.169,15.136a2.935,2.935,0,0,1-1.478,0C5.143,26.019,0,19.606,0,12.759V6.612A3.365,3.365,0,0,1,2.014,3.728L10.083.536a7.756,7.756,0,0,1,5.664,0l8.069,3.192A3.391,3.391,0,0,1,25.83,6.612Z" transform="translate(3.09 2.008)" fill="none" stroke="#fff" stroke-linecap="round" stroke-linejoin="round" stroke-width="2"/>
      <path id="Vector-2" data-name="Vector" d="M0,0H32V32H0Z" transform="translate(32 32) rotate(180)" fill="none" opacity="0"/>
    </g>
  </g>
</svg>
